<svg xmlns="http://www.w3.org/2000/svg" viewBox="0 -0.5 37 32" shape-rendering="crispEdges"><path stroke="rgba(85,85,85,0.011764705882352941)" d="M8 0h1M2 10h1m11 0h1"/><path stroke="rgba(77,77,77,0.803921568627451)" d="M9 0h1M9 31h1"/><path stroke="#4d4d4d" d="M10 0h7M9 1h13m3 0h3M9 2h14m2 0h4M8 3h15m3 0h3m-9 1h4m2 0h4m-9 1h3m3 0h3M6 6h13m3 0h3m2 0h4M6 7h13m3 0h3m3 0h3M5 8h15m3 0h3m3 0h3M5 9h3m15 0h4m2 0h4M4 10h3m17 0h3m3 0h3M3 11h4m3 0h3m11 0h3m3 0h3M3 12h3m3 0h3m13 0h1m3 0h3M2 13h4m3 0h3m17 0h3m2 0h1M2 14h3m3 0h3m17 0h3m3 0h1M1 15h3m3 0h4m16 0h4m2 0h3M1 16h3m3 0h3m17 0h3m3 0h3M2 17h1m3 0h3m17 0h3m3 0h3M2 18h1m3 0h3m17 0h3m2 0h4M5 19h3m3 0h1m13 0h3m3 0h3M4 20h4m3 0h2m11 0h4m2 0h4M4 21h4m2 0h3m17 0h3M5 22h3m3 0h3m15 0h3M5 23h4m2 0h4m2 0h15M6 24h3m3 0h3m3 0h13M6 25h4m3 0h3m2 0h13M7 26h3m3 0h3m-8 1h3m3 0h3m-9 1h4m2 0h15M9 29h3m3 0h14M9 30h4m2 0h13m-16 1h1m7 0h7"/><path stroke="rgba(77,77,77,0.9725490196078431)" d="M17 0h1m7 13h1M1 17h1m23 1h1"/><path stroke="rgba(77,77,77,0.9333333333333333)" d="M18 0h3m7 19h1M10 31h2m4 0h3"/><path stroke="rgba(77,77,77,0.9137254901960784)" d="M21 0h1"/><path stroke="rgba(75,75,75,0.13333333333333333)" d="M22 0h1m-8 4h4M0 17h1m17 10h4"/><path stroke="rgba(77,77,77,0.6588235294117647)" d="M23 0h1m4 1h1M4 8h1m0 6h1"/><path stroke="rgba(77,77,77,0.8666666666666667)" d="M24 0h1M9 24h1"/><path stroke="rgba(77,77,77,0.8431372549019608)" d="M25 0h1"/><path stroke="rgba(78,78,78,0.8)" d="M26 0h1"/><path stroke="rgba(77,77,77,0.792156862745098)" d="M27 0h1"/><path stroke="rgba(74,74,74,0.12156862745098039)" d="M28 0h1M17 26h1"/><path stroke="rgba(80,80,80,0.4117647058823529)" d="M8 1h1"/><path stroke="rgba(79,79,79,0.6823529411764706)" d="M22 1h1m4 6h1m4 1h1"/><path stroke="rgba(78,78,78,0.20392156862745098)" d="M23 1h1M14 21h1"/><path stroke="rgba(77,77,77,0.9921568627450981)" d="M24 1h1m3 12h1m0 4h1m-17 4h1m18 1h1"/><path stroke="rgba(84,84,84,0.07058823529411765)" d="M7 2h1M7 29h1"/><path stroke="rgba(77,77,77,0.9215686274509803)" d="M8 2h1M2 12h1m30 2h1m-5 7h1"/><path stroke="rgba(81,81,81,0.27058823529411763)" d="M23 2h1m9 7h1m-21 1h1m3 15h1"/><path stroke="rgba(78,78,78,0.6235294117647059)" d="M24 2h1M13 20h1"/><path stroke="rgba(78,78,78,0.24313725490196078)" d="M29 2h1M3 9h1"/><path stroke="rgba(77,77,77,0.6078431372549019)" d="M7 3h1"/><path stroke="rgba(78,78,78,0.8313725490196079)" d="M23 3h1"/><path stroke="rgba(78,78,78,0.10196078431372549)" d="M24 3h1M13 19h1"/><path stroke="rgba(77,77,77,0.9411764705882353)" d="M25 3h1m3 8h1M4 22h1"/><path stroke="rgba(77,77,77,0.807843137254902)" d="M29 3h1M19 7h1M6 12h1"/><path stroke="rgba(255,255,255,0.00784313725490196)" d="M30 3h1M7 12h1m-2 2h1m-4 5h1"/><path stroke="rgba(78,78,78,0.19215686274509805)" d="M7 4h1"/><path stroke="rgba(75,75,75,0.2)" d="M8 4h6m13 9h1m-5 14h7"/><path stroke="rgba(77,77,77,0.16862745098039217)" d="M14 4h1M0 14h1m7 7h1"/><path stroke="rgba(79,79,79,0.36470588235294116)" d="M19 4h1M10 23h1"/><path stroke="rgba(76,76,76,0.40784313725490196)" d="M24 4h1M8 20h1"/><path stroke="rgba(76,76,76,0.4470588235294118)" d="M25 4h1m-2 17h1"/><path stroke="rgba(76,76,76,0.3803921568627451)" d="M30 4h1m-5 11h1M3 18h1"/><path stroke="rgba(95,95,95,0.03137254901960784)" d="M5 5h1m6 12h1"/><path stroke="rgba(77,77,77,0.6862745098039216)" d="M6 5h1"/><path stroke="rgba(76,76,76,0.7333333333333333)" d="M7 5h3M8 22h1"/><path stroke="rgba(78,78,78,0.7294117647058823)" d="M10 5h1M2 19h1"/><path stroke="rgba(78,78,78,0.6666666666666666)" d="M11 5h7m10 21h2"/><path stroke="rgba(78,78,78,0.5882352941176471)" d="M18 5h1m16 8h1"/><path stroke="rgba(0,0,0,0.00392156862745098)" d="M19 5h1m0 2h1m13 3h1m-9 4h1m7 7h1m-20 1h1m13 8h1"/><path stroke="rgba(78,78,78,0.7215686274509804)" d="M20 5h1M4 19h1m1 7h1"/><path stroke="rgba(77,77,77,0.9294117647058824)" d="M24 5h1M8 19h1"/><path stroke="rgba(81,81,81,0.08627450980392157)" d="M25 5h1M3 22h1m10 9h1"/><path stroke="rgba(77,77,77,0.8235294117647058)" d="M26 5h1m3 14h1"/><path stroke="rgba(78,78,78,0.9098039215686274)" d="M30 5h1M7 10h1m-5 7h1m30 2h1"/><path stroke="rgba(91,91,91,0.054901960784313725)" d="M31 5h1M4 17h1m30 2h1m-6 9h1"/><path stroke="rgba(78,78,78,0.49411764705882355)" d="M5 6h1m6 7h1"/><path stroke="rgba(76,76,76,0.30196078431372547)" d="M19 6h1"/><path stroke="rgba(80,80,80,0.1607843137254902)" d="M20 6h1"/><path stroke="rgba(77,77,77,0.9803921568627451)" d="M21 6h1m3 1h1m6 9h1M5 18h1"/><path stroke="rgba(77,77,77,0.5568627450980392)" d="M25 6h1"/><path stroke="rgba(76,76,76,0.2627450980392157)" d="M26 6h1m-7 3h1m2 2h1m1 3h1m4 4h1"/><path stroke="rgba(77,77,77,0.5294117647058824)" d="M31 6h1"/><path stroke="rgba(81,81,81,0.10980392156862745)" d="M4 7h1"/><path stroke="rgba(77,77,77,0.9568627450980393)" d="M5 7h1m7 20h1"/><path stroke="rgba(79,79,79,0.5803921568627451)" d="M21 7h1"/><path stroke="rgba(78,78,78,0.15294117647058825)" d="M26 7h1m9 10h1"/><path stroke="rgba(77,77,77,0.9764705882352941)" d="M31 7h1m0 5h1m2 5h1"/><path stroke="rgba(82,82,82,0.1450980392156863)" d="M32 7h1"/><path stroke="rgba(78,78,78,0.3058823529411765)" d="M20 8h1M5 25h1"/><path stroke="rgba(75,75,75,0.06666666666666667)" d="M21 8h1M1 12h1m25 0h1M5 16h1"/><path stroke="rgba(77,77,77,0.9254901960784314)" d="M22 8h1M8 29h1"/><path stroke="rgba(77,77,77,0.7058823529411765)" d="M26 8h1m-3 4h1m6 5h1"/><path stroke="rgba(85,85,85,0.11764705882352941)" d="M27 8h1"/><path stroke="rgba(77,77,77,0.9607843137254902)" d="M28 8h1"/><path stroke="rgba(77,77,77,0.996078431372549)" d="M4 9h1m3 4h1m1 7h1m1 5h1"/><path stroke="rgba(76,76,76,0.615686274509804)" d="M8 9h1m18 2h1"/><path stroke="rgba(78,78,78,0.3568627450980392)" d="M9 9h1"/><path stroke="rgba(80,80,80,0.4)" d="M10 9h10"/><path stroke="rgba(78,78,78,0.43137254901960786)" d="M22 9h1m5 11h1M13 30h1"/><path stroke="rgba(80,80,80,0.28627450980392155)" d="M27 9h1"/><path stroke="rgba(79,79,79,0.5019607843137255)" d="M28 9h1M9 21h1"/><path stroke="rgba(77,77,77,0.8156862745098039)" d="M3 10h1m29 0h1"/><path stroke="rgba(78,78,78,0.050980392156862744)" d="M8 10h1m16 6h1M13 29h1"/><path stroke="rgba(77,77,77,0.30980392156862746)" d="M9 10h1m16 3h1M9 23h1"/><path stroke="rgba(79,79,79,0.4549019607843137)" d="M10 10h1M4 23h1"/><path stroke="rgba(78,78,78,0.396078431372549)" d="M11 10h1"/><path stroke="rgba(78,78,78,0.3333333333333333)" d="M12 10h1"/><path stroke="rgba(102,102,102,0.0196078431372549)" d="M22 10h1m8 16h1M8 31h1"/><path stroke="rgba(77,77,77,0.8392156862745098)" d="M23 10h1"/><path stroke="rgba(77,77,77,0.8352941176470589)" d="M27 10h1M12 29h1"/><path stroke="rgba(102,102,102,0.0392156862745098)" d="M28 10h1m-17 4h1m-4 8h1"/><path stroke="rgba(77,77,77,0.8823529411764706)" d="M29 10h1M10 22h1"/><path stroke="rgba(79,79,79,0.41568627450980394)" d="M2 11h1"/><path stroke="rgba(80,80,80,0.37254901960784315)" d="M7 11h1"/><path stroke="rgba(84,84,84,0.10588235294117647)" d="M8 11h1m3 16h1"/><path stroke="rgba(77,77,77,0.9529411764705882)" d="M9 11h1m2 8h1"/><path stroke="rgba(78,78,78,0.6627450980392157)" d="M13 11h1m-3 16h1m5 0h1"/><path stroke="rgba(88,88,88,0.09019607843137255)" d="M28 11h1"/><path stroke="rgba(78,78,78,0.6901960784313725)" d="M33 11h1"/><path stroke="rgba(92,92,92,0.043137254901960784)" d="M34 11h1M16 24h1"/><path stroke="rgba(78,78,78,0.6509803921568628)" d="M8 12h1"/><path stroke="rgba(77,77,77,0.9647058823529412)" d="M12 12h1m-3 14h1m5 0h1"/><path stroke="rgba(87,87,87,0.12549019607843137)" d="M13 12h1m-9 3h1m5 11h1"/><path stroke="rgba(77,77,77,0.8980392156862745)" d="M26 12h1"/><path stroke="rgba(78,78,78,0.6274509803921569)" d="M28 12h1"/><path stroke="rgba(82,82,82,0.1568627450980392)" d="M33 12h1m-3 4h1"/><path stroke="rgba(77,77,77,0.7764705882352941)" d="M34 12h1m-2 9h1m-20 1h1"/><path stroke="rgba(74,74,74,0.09411764705882353)" d="M35 12h1m-7 7h1"/><path stroke="rgba(77,77,77,0.5843137254901961)" d="M1 13h1m5 15h1"/><path stroke="rgba(75,75,75,0.23921568627450981)" d="M6 13h1"/><path stroke="rgba(79,79,79,0.22745098039215686)" d="M7 13h1"/><path stroke="rgba(85,85,85,0.1411764705882353)" d="M24 13h1m-1 5h1"/><path stroke="rgba(77,77,77,0.5176470588235295)" d="M32 13h1M4 16h1"/><path stroke="rgba(77,77,77,0.42745098039215684)" d="M33 13h1"/><path stroke="rgba(77,77,77,0.984313725490196)" d="M1 14h1m5 13h1m19 4h1"/><path stroke="rgba(77,77,77,0.796078431372549)" d="M7 14h1"/><path stroke="rgba(77,77,77,0.8862745098039215)" d="M11 14h1"/><path stroke="rgba(77,77,77,0.7843137254901961)" d="M27 14h1"/><path stroke="rgba(77,77,77,0.8941176470588236)" d="M31 14h1"/><path stroke="rgba(91,91,91,0.10980392156862745)" d="M32 14h1"/><path stroke="rgba(77,77,77,0.9882352941176471)" d="M35 14h1M9 17h1"/><path stroke="rgba(75,75,75,0.17254901960784313)" d="M36 14h1m-9 17h1"/><path stroke="rgba(77,77,77,0.7450980392156863)" d="M0 15h1m9 1h1"/><path stroke="rgba(77,77,77,0.9686274509803922)" d="M4 15h1"/><path stroke="rgba(79,79,79,0.403921568627451)" d="M6 15h1"/><path stroke="rgba(79,79,79,0.3254901960784314)" d="M11 15h1"/><path stroke="rgba(79,79,79,0.35294117647058826)" d="M31 15h1"/><path stroke="rgba(76,76,76,0.5647058823529412)" d="M32 15h1m-7 6h1"/><path stroke="rgba(77,77,77,0.7137254901960784)" d="M36 15h1"/><path stroke="rgba(77,77,77,0.6745098039215687)" d="M0 16h1"/><path stroke="rgba(77,77,77,0.9176470588235294)" d="M6 16h1"/><path stroke="rgba(77,77,77,0.9019607843137255)" d="M26 16h1"/><path stroke="rgba(76,76,76,0.7725490196078432)" d="M30 16h1"/><path stroke="rgba(77,77,77,0.7254901960784313)" d="M36 16h1M15 31h1"/><path stroke="rgba(77,77,77,0.5686274509803921)" d="M5 17h1m-3 4h1"/><path stroke="rgba(83,83,83,0.1803921568627451)" d="M10 17h1"/><path stroke="rgba(80,80,80,0.23529411764705882)" d="M11 17h1"/><path stroke="rgba(77,77,77,0.5450980392156862)" d="M25 17h1"/><path stroke="rgba(81,81,81,0.20784313725490197)" d="M30 17h1m2 5h1"/><path stroke="rgba(78,78,78,0.5490196078431373)" d="M1 18h1"/><path stroke="rgba(85,85,85,0.16470588235294117)" d="M4 18h1m1 9h1"/><path stroke="rgba(76,76,76,0.5764705882352941)" d="M9 18h1"/><path stroke="rgba(85,85,85,0.058823529411764705)" d="M10 18h1"/><path stroke="rgba(78,78,78,0.8901960784313725)" d="M11 18h1m3 6h1"/><path stroke="rgba(78,78,78,0.47058823529411764)" d="M12 18h1"/><path stroke="rgba(78,78,78,0.6)" d="M29 18h1m-11 8h8"/><path stroke="rgba(78,78,78,0.5333333333333333)" d="M35 18h1"/><path stroke="rgba(95,95,95,0.06274509803921569)" d="M1 19h1m28 8h1"/><path stroke="rgba(93,93,93,0.07450980392156863)" d="M9 19h1"/><path stroke="rgba(77,77,77,0.6196078431372549)" d="M10 19h1m19 7h1"/><path stroke="rgba(77,77,77,0.7098039215686275)" d="M24 19h1"/><path stroke="rgba(85,85,85,0.023529411764705882)" d="M2 20h1m1 4h1"/><path stroke="rgba(80,80,80,0.3215686274509804)" d="M3 20h1"/><path stroke="rgba(82,82,82,0.26666666666666666)" d="M9 20h1"/><path stroke="rgba(77,77,77,0.2980392156862745)" d="M23 20h1m-8 2h1"/><path stroke="rgba(76,76,76,0.4196078431372549)" d="M29 20h1"/><path stroke="rgba(78,78,78,0.3686274509803922)" d="M34 20h1"/><path stroke="rgba(81,81,81,0.2823529411764706)" d="M23 21h1"/><path stroke="rgba(77,77,77,0.5058823529411764)" d="M25 21h1"/><path stroke="rgba(78,78,78,0.5725490196078431)" d="M27 21h1"/><path stroke="rgba(84,84,84,0.08235294117647059)" d="M28 21h1"/><path stroke="rgba(77,77,77,0.4666666666666667)" d="M17 22h11"/><path stroke="rgba(76,76,76,0.6941176470588235)" d="M28 22h1"/><path stroke="rgba(77,77,77,0.34901960784313724)" d="M15 23h1m13 6h1"/><path stroke="rgba(80,80,80,0.27450980392156865)" d="M16 23h1"/><path stroke="rgba(78,78,78,0.611764705882353)" d="M32 23h1"/><path stroke="rgba(78,78,78,0.8509803921568627)" d="M5 24h1"/><path stroke="rgba(84,84,84,0.03529411764705882)" d="M10 24h1"/><path stroke="rgba(78,78,78,0.7686274509803922)" d="M11 24h1"/><path stroke="rgba(78,78,78,0.7607843137254902)" d="M17 24h1"/><path stroke="rgba(77,77,77,0.9450980392156862)" d="M31 24h1"/><path stroke="rgba(91,91,91,0.09803921568627451)" d="M32 24h1"/><path stroke="rgba(76,76,76,0.48627450980392156)" d="M10 25h1"/><path stroke="rgba(77,77,77,0.2196078431372549)" d="M11 25h1"/><path stroke="rgba(76,76,76,0.4980392156862745)" d="M16 25h1"/><path stroke="rgba(78,78,78,0.44313725490196076)" d="M31 25h1"/><path stroke="rgba(78,78,78,0.6392156862745098)" d="M12 26h1"/><path stroke="rgba(78,78,78,0.5215686274509804)" d="M18 26h1"/><path stroke="rgba(76,76,76,0.6549019607843137)" d="M27 26h1"/><path stroke="rgba(80,80,80,0.14901960784313725)" d="M22 27h1"/><path stroke="rgba(78,78,78,0.2549019607843137)" d="M12 28h1"/><path stroke="rgba(79,79,79,0.49019607843137253)" d="M13 28h1"/><path stroke="rgba(77,77,77,0.9058823529411765)" d="M29 28h1"/><path stroke="rgba(77,77,77,0.8745098039215686)" d="M14 29h1"/><path stroke="rgba(78,78,78,0.43529411764705883)" d="M8 30h1"/><path stroke="rgba(77,77,77,0.33725490196078434)" d="M14 30h1"/><path stroke="rgba(77,77,77,0.7647058823529411)" d="M28 30h1"/><path stroke="rgba(77,77,77,0.9372549019607843)" d="M13 31h1"/><path stroke="rgba(77,77,77,0.9490196078431372)" d="M19 31h1"/></svg>